<svg xmlns="http://www.w3.org/2000/svg" viewBox="0 0 1000 680" role="img" aria-labelledby="title desc"><title id="title">Webster International — Brand Option 4: Executive Global Crest</title><desc id="desc">Original vector concept board showing the W logo, wordmark, colour palette, digital website/button and favicon samples.</desc><defs><linearGradient id="mark" x1="0" x2="1" y1="0" y2="1"><stop stop-color="#C9A96B"/><stop offset="1" stop-color="#3E3E3E"/></linearGradient></defs><rect width="1000" height="680" fill="#f7f9fc"/><text x="54" y="60" fill="#526078" font-family="Arial,sans-serif" font-size="16" letter-spacing="4">WEBSTER INTERNATIONAL / OPTION 04</text><text x="54" y="90" fill="#778294" font-family="Arial,sans-serif" font-size="16">Executive Global Crest</text><g transform="translate(18 80)"><path d="M57 73h44l44 109 32-90 32 90 33-109h33l-48 129h-46l-29-73-29 73H99z" fill="#0B0B0B"/><path d="M105 73h44l30 102-33 28z" fill="#C9A96B"/><path d="M45 161q103-86 215-44" stroke="#C9A96B" stroke-width="3" fill="none"/></g><text x="315" y="218" font-size="61" font-weight="750" font-family="Arial,sans-serif" fill="#0B0B0B">Webster</text><text x="318" y="255" font-size="24" letter-spacing="9" font-family="Arial,sans-serif" fill="#0B0B0B">INTERNATIONAL</text><path d="M54 311H945" stroke="#dae1eb"/><text x="56" y="351" font-size="18" font-family="Arial,sans-serif" fill="#36455d">Executive · Precise · Global</text><g transform="translate(55 383)"><rect width="138" height="70" rx="9" fill="#0B0B0B"/><rect x="154" width="138" height="70" rx="9" fill="#C9A96B"/><rect x="308" width="138" height="70" rx="9" fill="#3E3E3E"/><rect x="462" width="138" height="70" rx="9" fill="#ffffff" stroke="#cad4df"/><text y="99" font-size="15" font-family="Arial,sans-serif" fill="#46556b">#0B0B0B</text><text x="154" y="99" font-size="15" font-family="Arial,sans-serif" fill="#46556b">#C9A96B</text><text x="308" y="99" font-size="15" font-family="Arial,sans-serif" fill="#46556b">#3E3E3E</text><text x="462" y="99" font-size="15" font-family="Arial,sans-serif" fill="#46556b">#FFFFFF</text></g><rect x="708" y="382" width="237" height="215" rx="14" fill="#0B0B0B"/><text x="730" y="426" font-size="23" font-family="Arial,sans-serif" fill="white" font-weight="bold">Webster</text><text x="730" y="450" font-size="12" letter-spacing="4" font-family="Arial,sans-serif" fill="white">INTERNATIONAL</text><text x="730" y="493" font-size="14" font-family="Arial,sans-serif" fill="#ffffff">Built for what's next.</text><rect x="730" y="516" width="181" height="40" rx="8" fill="#C9A96B"/><text x="752" y="541" fill="#000" font-family="Arial,sans-serif" font-weight="bold" font-size="13">Explore services →</text><text x="55" y="640" font-family="Arial,sans-serif" font-size="14" fill="#64748b">Review concept • Logo, palette, favicon and digital CTA sample</text></svg>